<svg id="Action_group" data-name="Action group" xmlns="http://www.w3.org/2000/svg" width="276" height="32" viewBox="0 0 276 32">
  <g id="Action_button_group" data-name="Action button group">
    <g id="Placement_Area" data-name="Placement Area" fill="red" stroke="rgba(0,0,0,0)" stroke-width="1" opacity="0">
      <rect width="276" height="32" stroke="none"/>
      <rect x="0.5" y="0.5" width="275" height="31" fill="none"/>
    </g>
    <g id="Action_Button" data-name="Action Button">
      <g id="Placement_Area-2" data-name="Placement Area" transform="translate(244)" fill="red" stroke="rgba(0,0,0,0)" stroke-width="1" opacity="0">
        <rect width="32" height="32" stroke="none"/>
        <rect x="0.5" y="0.5" width="31" height="31" fill="none"/>
      </g>
      <g id="Background" transform="translate(244)" fill="#fff" stroke="rgba(0,0,0,0)" stroke-width="1">
        <rect width="32" height="32" rx="4" stroke="none"/>
        <rect x="0.5" y="0.5" width="31" height="31" rx="3.5" fill="none"/>
      </g>
      <path id="Border" d="M4,0H28a4,4,0,0,1,4,4V28a4,4,0,0,1-4,4H4a4,4,0,0,1-4-4V4A4,4,0,0,1,4,0ZM4,1A3,3,0,0,0,1,4V28a3,3,0,0,0,3,3H28a3,3,0,0,0,3-3V4a3,3,0,0,0-3-3Z" transform="translate(244)" fill="#d3d3d3"/>
      <g id="Icon">
        <g id="Canvas" transform="translate(251 7)" fill="#747474" stroke="#747474" stroke-width="1" opacity="0">
          <rect width="18" height="18" stroke="none"/>
          <rect x="0.5" y="0.5" width="17" height="17" fill="none"/>
        </g>
        <g id="Ellipse_6" data-name="Ellipse 6" transform="translate(254.075 14.575)" fill="#747474" stroke="#747474" stroke-width="1">
          <circle cx="1.425" cy="1.425" r="1.425" stroke="none"/>
          <circle cx="1.425" cy="1.425" r="0.925" fill="none"/>
        </g>
        <g id="Ellipse_7" data-name="Ellipse 7" transform="translate(258.575 14.575)" fill="#747474" stroke="#747474" stroke-width="1">
          <circle cx="1.425" cy="1.425" r="1.425" stroke="none"/>
          <circle cx="1.425" cy="1.425" r="0.925" fill="none"/>
        </g>
        <g id="Ellipse_8" data-name="Ellipse 8" transform="translate(263.075 14.575)" fill="#747474" stroke="#747474" stroke-width="1">
          <circle cx="1.425" cy="1.425" r="1.425" stroke="none"/>
          <circle cx="1.425" cy="1.425" r="0.925" fill="none"/>
        </g>
      </g>
    </g>
    <g id="Action_Button-2" data-name="Action Button">
      <g id="Placement_Area-3" data-name="Placement Area" transform="translate(155)" fill="red" stroke="rgba(0,0,0,0)" stroke-width="1" opacity="0">
        <rect width="81" height="32" stroke="none"/>
        <rect x="0.5" y="0.5" width="80" height="31" fill="none"/>
      </g>
      <g id="Background-2" data-name="Background" transform="translate(155)" fill="#fff" stroke="rgba(0,0,0,0)" stroke-width="1">
        <rect width="81" height="32" rx="4" stroke="none"/>
        <rect x="0.5" y="0.5" width="80" height="31" rx="3.5" fill="none"/>
      </g>
      <path id="Border-2" data-name="Border" d="M4,0H77a4,4,0,0,1,4,4V28a4,4,0,0,1-4,4H4a4,4,0,0,1-4-4V4A4,4,0,0,1,4,0ZM4,1A3,3,0,0,0,1,4V28a3,3,0,0,0,3,3H77a3,3,0,0,0,3-3V4a3,3,0,0,0-3-3Z" transform="translate(155)" fill="#d3d3d3"/>
      <g id="Icon-2" data-name="Icon">
        <g id="Canvas-2" data-name="Canvas" transform="translate(162 7)" fill="#747474" stroke="#747474" stroke-width="1" opacity="0">
          <rect width="18" height="18" stroke="none"/>
          <rect x="0.5" y="0.5" width="17" height="17" fill="none"/>
        </g>
        <path id="Path_28" data-name="Path 28" d="M15.75,3H12V2a1,1,0,0,0-1-1H6A1,1,0,0,0,5,2V3H1.25A.25.25,0,0,0,1,3.25v.5A.25.25,0,0,0,1.25,4h1L3.457,16.55a.5.5,0,0,0,.5.45h9.089a.5.5,0,0,0,.5-.45L14.75,4h1A.25.25,0,0,0,16,3.75v-.5A.25.25,0,0,0,15.75,3ZM5.532,14.5A.5.5,0,0,1,5,14.035H5l-.536-8a.5.5,0,0,1,1-.067l.535,8a.5.5,0,0,1-.465.533ZM9,14a.5.5,0,0,1-1,0V6A.5.5,0,0,1,9,6ZM11,3H6V2h5Zm1,11.034a.5.5,0,0,1-1-.067l.535-8a.5.5,0,1,1,1,.067Z" transform="translate(162 7)" fill="#747474"/>
      </g>
      <text id="Text" transform="translate(187 20)" fill="#505050" font-size="14" font-family="AdobeClean-Regular, Adobe Clean"><tspan x="0" y="0">Delete</tspan></text>
    </g>
    <g id="Action_Button-3" data-name="Action Button">
      <g id="Placement_Area-4" data-name="Placement Area" fill="red" stroke="rgba(0,0,0,0)" stroke-width="1" opacity="0">
        <rect width="66" height="32" stroke="none"/>
        <rect x="0.5" y="0.5" width="65" height="31" fill="none"/>
      </g>
      <g id="Background-3" data-name="Background" fill="#fff" stroke="rgba(0,0,0,0)" stroke-width="1">
        <rect width="66" height="32" rx="4" stroke="none"/>
        <rect x="0.5" y="0.5" width="65" height="31" rx="3.5" fill="none"/>
      </g>
      <path id="Border-3" data-name="Border" d="M4,0H62a4,4,0,0,1,4,4V28a4,4,0,0,1-4,4H4a4,4,0,0,1-4-4V4A4,4,0,0,1,4,0ZM4,1A3,3,0,0,0,1,4V28a3,3,0,0,0,3,3H62a3,3,0,0,0,3-3V4a3,3,0,0,0-3-3Z" fill="#d3d3d3"/>
      <g id="Icon-3" data-name="Icon">
        <g id="Canvas-3" data-name="Canvas" transform="translate(7 7)" fill="#747474" stroke="#747474" stroke-width="1" opacity="0">
          <rect width="18" height="18" stroke="none"/>
          <rect x="0.5" y="0.5" width="17" height="17" fill="none"/>
        </g>
        <path id="Path_26" data-name="Path 26" d="M16.784,4.1,13.9,1.216a.608.608,0,0,0-.433-.176H13.45a.685.685,0,0,0-.464.2L2.542,11.686a.5.5,0,0,0-.126.211L1.028,16.55c-.057.188.229.426.391.426a.125.125,0,0,0,.031,0c.138-.031,3.933-1.172,4.656-1.389a.486.486,0,0,0,.207-.125L16.757,5.014a.686.686,0,0,0,.2-.441.61.61,0,0,0-.173-.473ZM5.7,14.658c-1.081.325-2.431.733-3.365,1.011l1-3.365Z" transform="translate(7 7)" fill="#747474"/>
      </g>
      <text id="Text-2" data-name="Text" transform="translate(32 20)" fill="#505050" font-size="14" font-family="AdobeClean-Regular, Adobe Clean"><tspan x="0" y="0">Edit</tspan></text>
    </g>
    <g id="Action_Button-4" data-name="Action Button">
      <g id="Placement_Area-5" data-name="Placement Area" transform="translate(74)" fill="red" stroke="rgba(0,0,0,0)" stroke-width="1" opacity="0">
        <rect width="73" height="32" stroke="none"/>
        <rect x="0.5" y="0.5" width="72" height="31" fill="none"/>
      </g>
      <g id="Background-4" data-name="Background" transform="translate(74)" fill="#fff" stroke="rgba(0,0,0,0)" stroke-width="1">
        <rect width="73" height="32" rx="4" stroke="none"/>
        <rect x="0.5" y="0.5" width="72" height="31" rx="3.5" fill="none"/>
      </g>
      <path id="Border-4" data-name="Border" d="M4,0H69a4,4,0,0,1,4,4V28a4,4,0,0,1-4,4H4a4,4,0,0,1-4-4V4A4,4,0,0,1,4,0ZM4,1A3,3,0,0,0,1,4V28a3,3,0,0,0,3,3H69a3,3,0,0,0,3-3V4a3,3,0,0,0-3-3Z" transform="translate(74)" fill="#d3d3d3"/>
      <g id="Icon-4" data-name="Icon">
        <g id="Canvas-4" data-name="Canvas" transform="translate(81 7)" fill="#747474" stroke="#747474" stroke-width="1" opacity="0">
          <rect width="18" height="18" stroke="none"/>
          <rect x="0.5" y="0.5" width="17" height="17" fill="none"/>
        </g>
        <g id="Rectangle_229" data-name="Rectangle 229" transform="translate(97 18)" fill="#747474" stroke="#747474" stroke-width="1">
          <rect width="1" height="1" rx="0.25" stroke="none"/>
          <rect x="0.5" y="0.5" fill="none"/>
        </g>
        <g id="Rectangle_230" data-name="Rectangle 230" transform="translate(97 16)" fill="#747474" stroke="#747474" stroke-width="1">
          <rect width="1" height="1" rx="0.25" stroke="none"/>
          <rect x="0.5" y="0.5" fill="none"/>
        </g>
        <g id="Rectangle_231" data-name="Rectangle 231" transform="translate(97 14)" fill="#747474" stroke="#747474" stroke-width="1">
          <rect width="1" height="1" rx="0.25" stroke="none"/>
          <rect x="0.5" y="0.5" fill="none"/>
        </g>
        <g id="Rectangle_232" data-name="Rectangle 232" transform="translate(97 12)" fill="#747474" stroke="#747474" stroke-width="1">
          <rect width="1" height="1" rx="0.25" stroke="none"/>
          <rect x="0.5" y="0.5" fill="none"/>
        </g>
        <g id="Rectangle_233" data-name="Rectangle 233" transform="translate(97 10)" fill="#747474" stroke="#747474" stroke-width="1">
          <rect width="1" height="1" rx="0.25" stroke="none"/>
          <rect x="0.5" y="0.5" fill="none"/>
        </g>
        <g id="Rectangle_234" data-name="Rectangle 234" transform="translate(97 8)" fill="#747474" stroke="#747474" stroke-width="1">
          <rect width="1" height="1" rx="0.25" stroke="none"/>
          <rect x="0.5" y="0.5" fill="none"/>
        </g>
        <g id="Rectangle_235" data-name="Rectangle 235" transform="translate(95 8)" fill="#747474" stroke="#747474" stroke-width="1">
          <rect width="1" height="1" rx="0.25" stroke="none"/>
          <rect x="0.5" y="0.5" fill="none"/>
        </g>
        <g id="Rectangle_236" data-name="Rectangle 236" transform="translate(93 8)" fill="#747474" stroke="#747474" stroke-width="1">
          <rect width="1" height="1" rx="0.25" stroke="none"/>
          <rect x="0.5" y="0.5" fill="none"/>
        </g>
        <g id="Rectangle_237" data-name="Rectangle 237" transform="translate(91 8)" fill="#747474" stroke="#747474" stroke-width="1">
          <rect width="1" height="1" rx="0.25" stroke="none"/>
          <rect x="0.5" y="0.5" fill="none"/>
        </g>
        <g id="Rectangle_238" data-name="Rectangle 238" transform="translate(89 8)" fill="#747474" stroke="#747474" stroke-width="1">
          <rect width="1" height="1" rx="0.25" stroke="none"/>
          <rect x="0.5" y="0.5" fill="none"/>
        </g>
        <g id="Rectangle_239" data-name="Rectangle 239" transform="translate(87 8)" fill="#747474" stroke="#747474" stroke-width="1">
          <rect width="1" height="1" rx="0.25" stroke="none"/>
          <rect x="0.5" y="0.5" fill="none"/>
        </g>
        <g id="Rectangle_240" data-name="Rectangle 240" transform="translate(87 10)" fill="#747474" stroke="#747474" stroke-width="1">
          <rect width="1" height="1" rx="0.25" stroke="none"/>
          <rect x="0.5" y="0.5" fill="none"/>
        </g>
        <g id="Rectangle_241" data-name="Rectangle 241" transform="translate(87 12)" fill="#747474" stroke="#747474" stroke-width="1">
          <rect width="1" height="1" rx="0.25" stroke="none"/>
          <rect x="0.5" y="0.5" fill="none"/>
        </g>
        <g id="Rectangle_242" data-name="Rectangle 242" transform="translate(87 14)" fill="#747474" stroke="#747474" stroke-width="1">
          <rect width="1" height="1" rx="0.25" stroke="none"/>
          <rect x="0.5" y="0.5" fill="none"/>
        </g>
        <g id="Rectangle_243" data-name="Rectangle 243" transform="translate(87 16)" fill="#747474" stroke="#747474" stroke-width="1">
          <rect width="1" height="1" rx="0.25" stroke="none"/>
          <rect x="0.5" y="0.5" fill="none"/>
        </g>
        <g id="Rectangle_244" data-name="Rectangle 244" transform="translate(87 18)" fill="#747474" stroke="#747474" stroke-width="1">
          <rect width="1" height="1" rx="0.25" stroke="none"/>
          <rect x="0.5" y="0.5" fill="none"/>
        </g>
        <g id="Rectangle_245" data-name="Rectangle 245" transform="translate(89 18)" fill="#747474" stroke="#747474" stroke-width="1">
          <rect width="1" height="1" rx="0.25" stroke="none"/>
          <rect x="0.5" y="0.5" fill="none"/>
        </g>
        <g id="Rectangle_246" data-name="Rectangle 246" transform="translate(91 18)" fill="#747474" stroke="#747474" stroke-width="1">
          <rect width="1" height="1" rx="0.25" stroke="none"/>
          <rect x="0.5" y="0.5" fill="none"/>
        </g>
        <g id="Rectangle_247" data-name="Rectangle 247" transform="translate(93 18)" fill="#747474" stroke="#747474" stroke-width="1">
          <rect width="1" height="1" rx="0.25" stroke="none"/>
          <rect x="0.5" y="0.5" fill="none"/>
        </g>
        <g id="Rectangle_248" data-name="Rectangle 248" transform="translate(95 18)" fill="#747474" stroke="#747474" stroke-width="1">
          <rect width="1" height="1" rx="0.25" stroke="none"/>
          <rect x="0.5" y="0.5" fill="none"/>
        </g>
        <path id="Path_27" data-name="Path 27" d="M5,6H1.5a.5.5,0,0,0-.5.5v10a.5.5,0,0,0,.5.5h10a.5.5,0,0,0,.5-.5V13H5.5a.5.5,0,0,1-.5-.5Z" transform="translate(81 7)" fill="#747474"/>
      </g>
      <text id="Text-3" data-name="Text" transform="translate(106 20)" fill="#505050" font-size="14" font-family="AdobeClean-Regular, Adobe Clean"><tspan x="0" y="0">Copy</tspan></text>
    </g>
  </g>
  <g id="Placement_Area-6" data-name="Placement Area" fill="red" stroke="rgba(0,0,0,0)" stroke-width="1" opacity="0">
    <rect width="130" height="32" stroke="none"/>
    <rect x="0.5" y="0.5" width="129" height="31" fill="none"/>
  </g>
</svg>
