<svg id="Progress_bar_" data-name="Progress (bar)" xmlns="http://www.w3.org/2000/svg" width="160" height="34" viewBox="0 0 160 34">
  <g id="Placement_Area" data-name="Placement Area" fill="red" stroke="rgba(0,0,0,0)" stroke-width="1" opacity="0">
    <rect width="160" height="34" stroke="none"/>
    <rect x="0.5" y="0.5" width="159" height="33" fill="none"/>
  </g>
  <g id="Track" transform="translate(0 28)" fill="#e1e1e1" stroke="rgba(0,0,0,0)" stroke-width="1">
    <rect width="160" height="6" rx="3" stroke="none"/>
    <rect x="0.5" y="0.5" width="159" height="5" rx="2.5" fill="none"/>
  </g>
  <text id="Label" transform="translate(0 16)" fill="#6e6e6e" font-size="12" font-family="AdobeClean-Regular, Adobe Clean"><tspan x="0" y="0">Bar loader label</tspan></text>
  <text id="Value" transform="translate(160 16)" fill="#4b4b4b" font-size="12" font-family="AdobeClean-Regular, Adobe Clean"><tspan x="-21.852" y="0">30%</tspan></text>
  <g id="Fill" transform="translate(0 28)" fill="#1473e6" stroke="rgba(0,0,0,0)" stroke-width="1">
    <path d="M3,0H48a0,0,0,0,1,0,0V6a0,0,0,0,1,0,0H3A3,3,0,0,1,0,3V3A3,3,0,0,1,3,0Z" stroke="none"/>
    <path d="M3,.5H47a.5.5,0,0,1,.5.5V5a.5.5,0,0,1-.5.5H3A2.5,2.5,0,0,1,.5,3V3A2.5,2.5,0,0,1,3,.5Z" fill="none"/>
  </g>
</svg>
