<svg id="Action_button" data-name="Action button" xmlns="http://www.w3.org/2000/svg" width="66" height="32" viewBox="0 0 66 32">
  <g id="Action_button-2" data-name="Action button">
    <g id="Placement_Area" data-name="Placement Area" fill="red" stroke="rgba(0,0,0,0)" stroke-width="1" opacity="0">
      <rect width="66" height="32" stroke="none"/>
      <rect x="0.5" y="0.5" width="65" height="31" fill="none"/>
    </g>
    <g id="Background" fill="#fff" stroke="rgba(0,0,0,0)" stroke-width="1">
      <rect width="66" height="32" rx="4" stroke="none"/>
      <rect x="0.5" y="0.5" width="65" height="31" rx="3.5" fill="none"/>
    </g>
    <path id="Border" d="M4,0H62a4,4,0,0,1,4,4V28a4,4,0,0,1-4,4H4a4,4,0,0,1-4-4V4A4,4,0,0,1,4,0ZM4,1A3,3,0,0,0,1,4V28a3,3,0,0,0,3,3H62a3,3,0,0,0,3-3V4a3,3,0,0,0-3-3Z" fill="#d3d3d3"/>
    <g id="Icon">
      <g id="Canvas" transform="translate(7 7)" fill="#747474" stroke="#747474" stroke-width="1" opacity="0">
        <rect width="18" height="18" stroke="none"/>
        <rect x="0.5" y="0.5" width="17" height="17" fill="none"/>
      </g>
      <path id="Path_2" data-name="Path 2" d="M16.784,4.1,13.9,1.216a.608.608,0,0,0-.433-.176H13.45a.685.685,0,0,0-.464.2L2.542,11.686a.5.5,0,0,0-.126.211L1.028,16.55c-.057.188.229.426.391.426a.125.125,0,0,0,.031,0c.138-.031,3.933-1.172,4.656-1.389a.486.486,0,0,0,.207-.125L16.757,5.014a.686.686,0,0,0,.2-.441.61.61,0,0,0-.173-.473ZM5.7,14.658c-1.081.325-2.431.733-3.365,1.011l1-3.365Z" transform="translate(7 7)" fill="#747474"/>
    </g>
    <text id="Text" transform="translate(32 20)" fill="#505050" font-size="14" font-family="AdobeClean-Regular, Adobe Clean"><tspan x="0" y="0">Edit</tspan></text>
  </g>
</svg>
