<svg id="Rating" xmlns="http://www.w3.org/2000/svg" width="120" height="32" viewBox="0 0 120 32">
  <g id="Placement_Area" data-name="Placement Area" fill="red" stroke="rgba(0,0,0,0)" stroke-width="1" opacity="0">
    <rect width="120" height="32" stroke="none"/>
    <rect x="0.5" y="0.5" width="119" height="31" fill="none"/>
  </g>
  <g id="Star_1" data-name="Star 1">
    <g id="Placement_Area-2" data-name="Placement Area" fill="red" stroke="rgba(0,0,0,0)" stroke-width="1" opacity="0">
      <rect width="24" height="32" stroke="none"/>
      <rect x="0.5" y="0.5" width="23" height="31" fill="none"/>
    </g>
    <g id="Star">
      <g id="Frame" transform="translate(3 7)" fill="#f0f" stroke="rgba(0,0,0,0)" stroke-width="1" opacity="0">
        <rect width="18" height="18" stroke="none"/>
        <rect x="0.5" y="0.5" width="17" height="17" fill="none"/>
      </g>
      <path id="Shape" d="M9.031,2.541l1.777,4.753,5.11.241-3.987,3.2,1.336,4.913L9,12.866,4.719,15.674l1.352-4.937-3.987-3.2,5.1-.245ZM9.042.412a.369.369,0,0,0-.349.239L6.486,6.326l-6.1.293a.375.375,0,0,0-.217.667l4.762,3.821L3.318,17a.376.376,0,0,0,.264.462.406.406,0,0,0,.1.013.367.367,0,0,0,.2-.063L9,14.061l5.1,3.324a.375.375,0,0,0,.563-.414l-1.6-5.866L17.831,7.28a.375.375,0,0,0-.217-.667l-6.1-.287L9.393.655A.369.369,0,0,0,9.042.412Z" transform="translate(3 7)" fill="#6e6e6e"/>
    </g>
  </g>
  <g id="Star_2" data-name="Star 2">
    <g id="Placement_Area-3" data-name="Placement Area" transform="translate(24)" fill="red" stroke="rgba(0,0,0,0)" stroke-width="1" opacity="0">
      <rect width="24" height="32" stroke="none"/>
      <rect x="0.5" y="0.5" width="23" height="31" fill="none"/>
    </g>
    <g id="Star-2" data-name="Star">
      <g id="Frame-2" data-name="Frame" transform="translate(27 7)" fill="#f0f" stroke="rgba(0,0,0,0)" stroke-width="1" opacity="0">
        <rect width="18" height="18" stroke="none"/>
        <rect x="0.5" y="0.5" width="17" height="17" fill="none"/>
      </g>
      <path id="Shape-2" data-name="Shape" d="M9.031,2.541l1.777,4.753,5.11.241-3.987,3.2,1.336,4.913L9,12.866,4.719,15.674l1.352-4.937-3.987-3.2,5.1-.245ZM9.042.412a.369.369,0,0,0-.349.239L6.486,6.326l-6.1.293a.375.375,0,0,0-.217.667l4.762,3.821L3.318,17a.376.376,0,0,0,.264.462.406.406,0,0,0,.1.013.367.367,0,0,0,.2-.063L9,14.061l5.1,3.324a.375.375,0,0,0,.563-.414l-1.6-5.866L17.831,7.28a.375.375,0,0,0-.217-.667l-6.1-.287L9.393.655A.369.369,0,0,0,9.042.412Z" transform="translate(27 7)" fill="#6e6e6e"/>
    </g>
  </g>
  <g id="Star_3" data-name="Star 3">
    <g id="Placement_Area-4" data-name="Placement Area" transform="translate(48)" fill="red" stroke="rgba(0,0,0,0)" stroke-width="1" opacity="0">
      <rect width="24" height="32" stroke="none"/>
      <rect x="0.5" y="0.5" width="23" height="31" fill="none"/>
    </g>
    <g id="Star-3" data-name="Star">
      <g id="Frame-3" data-name="Frame" transform="translate(51 7)" fill="#f0f" stroke="rgba(0,0,0,0)" stroke-width="1" opacity="0">
        <rect width="18" height="18" stroke="none"/>
        <rect x="0.5" y="0.5" width="17" height="17" fill="none"/>
      </g>
      <path id="Shape-3" data-name="Shape" d="M9.031,2.541l1.777,4.753,5.11.241-3.987,3.2,1.336,4.913L9,12.866,4.719,15.674l1.352-4.937-3.987-3.2,5.1-.245ZM9.042.412a.369.369,0,0,0-.349.239L6.486,6.326l-6.1.293a.375.375,0,0,0-.217.667l4.762,3.821L3.318,17a.376.376,0,0,0,.264.462.406.406,0,0,0,.1.013.367.367,0,0,0,.2-.063L9,14.061l5.1,3.324a.375.375,0,0,0,.563-.414l-1.6-5.866L17.831,7.28a.375.375,0,0,0-.217-.667l-6.1-.287L9.393.655A.369.369,0,0,0,9.042.412Z" transform="translate(51 7)" fill="#6e6e6e"/>
    </g>
  </g>
  <g id="Star_4" data-name="Star 4">
    <g id="Placement_Area-5" data-name="Placement Area" transform="translate(72)" fill="red" stroke="rgba(0,0,0,0)" stroke-width="1" opacity="0">
      <rect width="24" height="32" stroke="none"/>
      <rect x="0.5" y="0.5" width="23" height="31" fill="none"/>
    </g>
    <g id="Star-4" data-name="Star">
      <g id="Frame-4" data-name="Frame" transform="translate(75 7)" fill="#f0f" stroke="rgba(0,0,0,0)" stroke-width="1" opacity="0">
        <rect width="18" height="18" stroke="none"/>
        <rect x="0.5" y="0.5" width="17" height="17" fill="none"/>
      </g>
      <path id="Shape-4" data-name="Shape" d="M9.031,2.541l1.777,4.753,5.11.241-3.987,3.2,1.336,4.913L9,12.866,4.719,15.674l1.352-4.937-3.987-3.2,5.1-.245ZM9.042.412a.369.369,0,0,0-.349.239L6.486,6.326l-6.1.293a.375.375,0,0,0-.217.667l4.762,3.821L3.318,17a.376.376,0,0,0,.264.462.406.406,0,0,0,.1.013.367.367,0,0,0,.2-.063L9,14.061l5.1,3.324a.375.375,0,0,0,.563-.414l-1.6-5.866L17.831,7.28a.375.375,0,0,0-.217-.667l-6.1-.287L9.393.655A.369.369,0,0,0,9.042.412Z" transform="translate(75 7)" fill="#6e6e6e"/>
    </g>
  </g>
  <g id="Star_5" data-name="Star 5">
    <g id="Placement_Area-6" data-name="Placement Area" transform="translate(96)" fill="red" stroke="rgba(0,0,0,0)" stroke-width="1" opacity="0">
      <rect width="24" height="32" stroke="none"/>
      <rect x="0.5" y="0.5" width="23" height="31" fill="none"/>
    </g>
    <g id="Star-5" data-name="Star">
      <g id="Frame-5" data-name="Frame" transform="translate(99 7)" fill="#f0f" stroke="rgba(0,0,0,0)" stroke-width="1" opacity="0">
        <rect width="18" height="18" stroke="none"/>
        <rect x="0.5" y="0.5" width="17" height="17" fill="none"/>
      </g>
      <path id="Shape-5" data-name="Shape" d="M9.031,2.541l1.777,4.753,5.11.241-3.987,3.2,1.336,4.913L9,12.866,4.719,15.674l1.352-4.937-3.987-3.2,5.1-.245ZM9.042.412a.369.369,0,0,0-.349.239L6.486,6.326l-6.1.293a.375.375,0,0,0-.217.667l4.762,3.821L3.318,17a.376.376,0,0,0,.264.462.406.406,0,0,0,.1.013.367.367,0,0,0,.2-.063L9,14.061l5.1,3.324a.375.375,0,0,0,.563-.414l-1.6-5.866L17.831,7.28a.375.375,0,0,0-.217-.667l-6.1-.287L9.393.655A.369.369,0,0,0,9.042.412Z" transform="translate(99 7)" fill="#6e6e6e"/>
    </g>
  </g>
</svg>
