<svg id="Picker" xmlns="http://www.w3.org/2000/svg" width="176" height="56" viewBox="0 0 176 56">
  <g id="Placement_Area" data-name="Placement Area" fill="red" stroke="rgba(0,0,0,0)" stroke-width="1" opacity="0">
    <rect width="176" height="56" stroke="none"/>
    <rect x="0.5" y="0.5" width="175" height="55" fill="none"/>
  </g>
  <text id="Label" transform="translate(0 16)" fill="#6e6e6e" font-size="12" font-family="AdobeClean-Regular, Adobe Clean"><tspan x="0" y="0">Picker label</tspan></text>
  <g id="Field_Button" data-name="Field Button" transform="translate(0 24)" fill="#fafafa" stroke="#cacaca" stroke-width="1">
    <rect width="176" height="32" rx="4" stroke="none"/>
    <rect x="0.5" y="0.5" width="175" height="31" rx="3.5" fill="none"/>
  </g>
  <text id="Text" transform="translate(12 44)" fill="#8e8e8e" font-size="14" font-family="AdobeClean-It, Adobe Clean" font-style="italic"><tspan x="0" y="0">Placeholder text…</tspan></text>
  <g id="Chevron">
    <g id="Frame" transform="translate(154 37)" fill="#f0f" stroke="rgba(0,0,0,0)" stroke-width="1" opacity="0">
      <rect width="10" height="6" stroke="none"/>
      <rect x="0.5" y="0.5" width="9" height="5" fill="none"/>
    </g>
    <path id="Shape" d="M9.99,1.01A1,1,0,0,0,8.283.3L5,3.586,1.717.3A1,1,0,1,0,.3,1.717L4.293,5.7a1,1,0,0,0,1.414,0L9.7,1.717A1,1,0,0,0,9.99,1.01Z" transform="translate(154 37)" fill="#6e6e6e"/>
  </g>
</svg>
