<svg id="Dialog" xmlns="http://www.w3.org/2000/svg" width="480" height="250" viewBox="0 0 480 250">
  <g id="Placement_Area" data-name="Placement Area" fill="red" stroke="rgba(0,0,0,0)" stroke-width="1" opacity="0">
    <rect width="480" height="250" stroke="none"/>
    <rect x="0.5" y="0.5" width="479" height="249" fill="none"/>
  </g>
  <g id="Background" fill="#f5f5f5" stroke="rgba(0,0,0,0)" stroke-width="1">
    <rect width="480" height="250" rx="4" stroke="none"/>
    <rect x="0.5" y="0.5" width="479" height="249" rx="3.5" fill="none"/>
  </g>
  <text id="Header" transform="translate(40 40)" fill="#2c2c2c" font-size="18" font-family="AdobeClean-Bold, Adobe Clean" font-weight="700"><tspan x="0" y="18">Dialog title</tspan></text>
  <g id="Divider">
    <g id="Placement_Area-2" data-name="Placement Area" transform="translate(40 74)" fill="red" stroke="rgba(0,0,0,0)" stroke-width="1" opacity="0">
      <rect width="400" height="2" stroke="none"/>
      <rect x="0.5" y="0.5" width="399" height="1" fill="none"/>
    </g>
    <g id="Bar" transform="translate(40 74)" fill="#e1e1e1" stroke="rgba(0,0,0,0)" stroke-width="1">
      <rect width="400" height="2" rx="1" stroke="none"/>
      <rect x="0.5" y="0.5" width="399" height="1" rx="0.5" fill="none"/>
    </g>
  </g>
  <text id="Body" transform="translate(40 92)" fill="#4b4b4b" font-size="14" font-family="AdobeClean-Regular, Adobe Clean"><tspan x="0" y="14">Dialog description. Lorem ipsum dolor sit amet, consectetur adipiscing </tspan><tspan x="0" y="35">elit sed do eiusmod tempor incididunt ut labore et dolore.</tspan></text>
  <g id="Button_Group" data-name="Button Group">
    <g id="Placement_Area-3" data-name="Placement Area" transform="translate(280 178)" fill="red" stroke="rgba(0,0,0,0)" stroke-width="1" opacity="0">
      <rect width="160" height="32" stroke="none"/>
      <rect x="0.5" y="0.5" width="159" height="31" fill="none"/>
    </g>
    <g id="Button">
      <g id="Placement_Area-4" data-name="Placement Area" transform="translate(280 178)" fill="red" stroke="rgba(0,0,0,0)" stroke-width="1" opacity="0">
        <rect width="72" height="32" stroke="none"/>
        <rect x="0.5" y="0.5" width="71" height="31" fill="none"/>
      </g>
      <g id="Background-2" data-name="Background" transform="translate(280 178)" fill="rgba(200,0,0,0)" stroke="#6e6e6e" stroke-width="2">
        <rect width="72" height="32" rx="16" stroke="none"/>
        <rect x="1" y="1" width="70" height="30" rx="15" fill="none"/>
      </g>
      <text id="Text" transform="translate(297 198)" fill="#6e6e6e" font-size="14" font-family="AdobeClean-Bold, Adobe Clean" font-weight="700"><tspan x="0" y="0">Action</tspan></text>
    </g>
    <g id="Button-2" data-name="Button">
      <g id="Placement_Area-5" data-name="Placement Area" transform="translate(368 178)" fill="red" stroke="rgba(0,0,0,0)" stroke-width="1" opacity="0">
        <rect width="72" height="32" stroke="none"/>
        <rect x="0.5" y="0.5" width="71" height="31" fill="none"/>
      </g>
      <g id="Background-3" data-name="Background" transform="translate(368 178)" fill="#1473e6" stroke="rgba(0,0,0,0)" stroke-width="1">
        <rect width="72" height="32" rx="16" stroke="none"/>
        <rect x="0.5" y="0.5" width="71" height="31" rx="15.5" fill="none"/>
      </g>
      <text id="Text-2" data-name="Text" transform="translate(385 198)" fill="#fff" font-size="14" font-family="AdobeClean-Bold, Adobe Clean" font-weight="700"><tspan x="0" y="0">Action</tspan></text>
    </g>
  </g>
</svg>
