<svg xmlns="http://www.w3.org/2000/svg" xmlns:xlink="http://www.w3.org/1999/xlink" width="292" height="273" viewBox="0 0 292 273">
  <defs>
    <filter id="Background" x="0" y="41" width="292" height="232" filterUnits="userSpaceOnUse">
      <feOffset dy="1" input="SourceAlpha"/>
      <feGaussianBlur stdDeviation="2" result="blur"/>
      <feFlood flood-opacity="0.149"/>
      <feComposite operator="in" in2="blur"/>
      <feComposite in="SourceGraphic"/>
    </filter>
  </defs>
  <g id="Coach_mark" data-name="Coach mark" transform="translate(6)">
    <g id="Placement_Area" data-name="Placement Area" fill="red" stroke="rgba(0,0,0,0)" stroke-width="1" opacity="0">
      <rect width="280" height="266" stroke="none"/>
      <rect x="0.5" y="0.5" width="279" height="265" fill="none"/>
    </g>
    <g transform="matrix(1, 0, 0, 1, -6, 0)" filter="url(#Background)">
      <g id="Background-2" data-name="Background" transform="translate(6 46)" fill="#fff" stroke="rgba(0,0,0,0)" stroke-width="1">
        <rect width="280" height="220" rx="4" stroke="none"/>
        <rect x="0.5" y="0.5" width="279" height="219" rx="3.5" fill="none"/>
      </g>
    </g>
    <g id="Border" transform="translate(0 46)" fill="rgba(0,0,0,0)" stroke="#cacaca" stroke-width="1">
      <rect width="280" height="220" rx="4" stroke="none"/>
      <rect x="0.5" y="0.5" width="279" height="219" rx="3.5" fill="none"/>
    </g>
    <text id="Header" transform="translate(24 70)" fill="#2c2c2c" font-size="16" font-family="AdobeClean-Bold, Adobe Clean" font-weight="700"><tspan x="0" y="16">Coach mark title</tspan></text>
    <text id="Step_Count" data-name="Step Count" transform="translate(227 86)" fill="#8e8e8e" font-size="14" font-family="AdobeClean-Medium, Adobe Clean" font-weight="500"><tspan x="0" y="0">1 of 2</tspan></text>
    <text id="Body" transform="translate(24 108)" fill="#4b4b4b" font-size="14" font-family="AdobeClean-Regular, Adobe Clean"><tspan x="0" y="14">Coach mark description. Lorem ipsum </tspan><tspan x="0" y="35">dolor sit amet, consectetur adipiscing elit </tspan><tspan x="0" y="56">sed do eiusmod tempor incididunt ut </tspan><tspan x="0" y="77">labore et dolore.</tspan></text>
    <g id="Button_Group" data-name="Button Group">
      <g id="Placement_Area-2" data-name="Placement Area" transform="translate(98 210)" fill="red" stroke="rgba(0,0,0,0)" stroke-width="1" opacity="0">
        <rect width="158" height="32" stroke="none"/>
        <rect x="0.5" y="0.5" width="157" height="31" fill="none"/>
      </g>
      <g id="Button">
        <g id="Placement_Area-3" data-name="Placement Area" transform="translate(98 210)" fill="red" stroke="rgba(0,0,0,0)" stroke-width="1" opacity="0">
          <rect width="70" height="32" stroke="none"/>
          <rect x="0.5" y="0.5" width="69" height="31" fill="none"/>
        </g>
        <text id="Text" transform="translate(114 230)" fill="#6e6e6e" font-size="14" font-family="AdobeClean-Bold, Adobe Clean" font-weight="700"><tspan x="0" y="0">Action</tspan></text>
      </g>
      <g id="Button-2" data-name="Button">
        <g id="Placement_Area-4" data-name="Placement Area" transform="translate(184 210)" fill="red" stroke="rgba(0,0,0,0)" stroke-width="1" opacity="0">
          <rect width="72" height="32" stroke="none"/>
          <rect x="0.5" y="0.5" width="71" height="31" fill="none"/>
        </g>
        <g id="Background-3" data-name="Background" transform="translate(184 210)" fill="rgba(200,0,0,0)" stroke="#4b4b4b" stroke-width="2">
          <rect width="72" height="32" rx="16" stroke="none"/>
          <rect x="1" y="1" width="70" height="30" rx="15" fill="none"/>
        </g>
        <text id="Text-2" data-name="Text" transform="translate(201 230)" fill="#4b4b4b" font-size="14" font-family="AdobeClean-Bold, Adobe Clean" font-weight="700"><tspan x="0" y="0">Action</tspan></text>
      </g>
    </g>
    <g id="Ellipse_3" data-name="Ellipse 3" transform="translate(12 8)" fill="rgba(0,0,0,0)" stroke="rgba(38,128,235,0.52)" stroke-width="2">
      <circle cx="12" cy="12" r="12" stroke="none"/>
      <circle cx="12" cy="12" r="11" fill="none"/>
    </g>
    <g id="Ellipse_4" data-name="Ellipse 4" transform="translate(8 4)" fill="rgba(0,0,0,0)" stroke="#2680eb" stroke-width="2">
      <circle cx="16" cy="16" r="16" stroke="none"/>
      <circle cx="16" cy="16" r="15" fill="none"/>
    </g>
    <g id="Ellipse_5" data-name="Ellipse 5" transform="translate(4)" fill="rgba(0,0,0,0)" stroke="rgba(38,128,235,0.24)" stroke-width="2">
      <circle cx="20" cy="20" r="20" stroke="none"/>
      <circle cx="20" cy="20" r="19" fill="none"/>
    </g>
  </g>
</svg>
