<svg id="Action_button" data-name="Action button" xmlns="http://www.w3.org/2000/svg" width="81" height="32" viewBox="0 0 81 32">
  <g id="Placement_Area" data-name="Placement Area" fill="red" stroke="rgba(0,0,0,0)" stroke-width="1" opacity="0">
    <rect width="81" height="32" stroke="none"/>
    <rect x="0.5" y="0.5" width="80" height="31" fill="none"/>
  </g>
  <g id="Background" fill="#fafafa" stroke="rgba(0,0,0,0)" stroke-width="1">
    <rect width="81" height="32" rx="4" stroke="none"/>
    <rect x="0.5" y="0.5" width="80" height="31" rx="3.5" fill="none"/>
  </g>
  <path id="Border" d="M4,0H77a4,4,0,0,1,4,4V28a4,4,0,0,1-4,4H4a4,4,0,0,1-4-4V4A4,4,0,0,1,4,0ZM4,1A3,3,0,0,0,1,4V28a3,3,0,0,0,3,3H77a3,3,0,0,0,3-3V4a3,3,0,0,0-3-3Z" fill="#cacaca"/>
  <g id="Icon">
    <g id="Frame" transform="translate(7 7)" fill="#f0f" stroke="rgba(0,0,0,0)" stroke-width="1" opacity="0">
      <rect width="18" height="18" stroke="none"/>
      <rect x="0.5" y="0.5" width="17" height="17" fill="none"/>
    </g>
    <g id="Shape" transform="translate(8 8)" fill="#6e6e6e" stroke="rgba(0,0,0,0)" stroke-width="1">
      <circle cx="8" cy="8" r="8" stroke="none"/>
      <circle cx="8" cy="8" r="7.5" fill="none"/>
    </g>
  </g>
  <text id="Text" transform="translate(32 20)" fill="#4b4b4b" font-size="14" font-family="AdobeClean-Regular, Adobe Clean"><tspan x="0" y="0">Action</tspan></text>
</svg>
