<svg id="Toast" xmlns="http://www.w3.org/2000/svg" width="312" height="74" viewBox="0 0 312 74">
  <g id="Placement_Area" data-name="Placement Area" fill="red" stroke="rgba(0,0,0,0)" stroke-width="1" opacity="0">
    <rect width="312" height="74" stroke="none"/>
    <rect x="0.5" y="0.5" width="311" height="73" fill="none"/>
  </g>
  <g id="Background" fill="#747474" stroke="rgba(0,0,0,0)" stroke-width="1">
    <rect width="312" height="74" rx="4" stroke="none"/>
    <rect x="0.5" y="0.5" width="311" height="73" rx="3.5" fill="none"/>
  </g>
  <g id="Action">
    <g id="Placement_Area-2" data-name="Placement Area" transform="translate(185 34)" fill="red" stroke="rgba(0,0,0,0)" stroke-width="1" opacity="0">
      <rect width="70" height="32" stroke="none"/>
      <rect x="0.5" y="0.5" width="69" height="31" fill="none"/>
    </g>
    <text id="Text" transform="translate(201 54)" fill="#fff" font-size="14" font-family="AdobeClean-Bold, Adobe Clean" font-weight="700"><tspan x="0" y="0">Action</tspan></text>
  </g>
  <g id="Close">
    <g id="Placement_Area-3" data-name="Placement Area" transform="translate(272 8)" fill="red" stroke="rgba(0,0,0,0)" stroke-width="1" opacity="0">
      <rect width="32" height="32" stroke="none"/>
      <rect x="0.5" y="0.5" width="31" height="31" fill="none"/>
    </g>
    <g id="Icon">
      <g id="Frame" transform="translate(284 20)" fill="#f0f" stroke="rgba(0,0,0,0)" stroke-width="1" opacity="0">
        <rect width="8" height="8" stroke="none"/>
        <rect x="0.5" y="0.5" width="7" height="7" fill="none"/>
      </g>
      <path id="Shape" d="M7.77,6.709,5.061,4,7.77,1.291A.75.75,0,0,0,6.709.23L4,2.939,1.291.23A.75.75,0,1,0,.23,1.291L2.939,4,.23,6.709A.75.75,0,0,0,1.291,7.77L4,5.061,6.709,7.77A.75.75,0,0,0,7.77,6.709Z" transform="translate(284 20)" fill="#fff"/>
    </g>
  </g>
  <g id="Vertical_Divider" data-name="Vertical Divider" transform="translate(263 8)" fill="rgba(255,255,255,0.2)" stroke="rgba(0,0,0,0)" stroke-width="1">
    <rect width="1" height="58" stroke="none"/>
    <rect x="0.5" y="0.5" height="57" fill="none"/>
  </g>
  <text id="Text-2" data-name="Text" transform="translate(16 14)" fill="#fff" font-size="14" font-family="AdobeClean-Bold, Adobe Clean" font-weight="700"><tspan x="0" y="14">Toast text. Lorem ipsum dolor sit amet.</tspan></text>
</svg>
