<svg xmlns="http://www.w3.org/2000/svg" xmlns:xlink="http://www.w3.org/1999/xlink" width="146" height="52" viewBox="0 0 146 52">
  <defs>
    <filter id="Background" x="0" y="0" width="146" height="52" filterUnits="userSpaceOnUse">
      <feOffset dy="1" input="SourceAlpha"/>
      <feGaussianBlur stdDeviation="2" result="blur"/>
      <feFlood flood-opacity="0.149"/>
      <feComposite operator="in" in2="blur"/>
      <feComposite in="SourceGraphic"/>
    </filter>
  </defs>
  <g id="Quick_actions" data-name="Quick actions" transform="translate(6 5)">
    <g id="Placement_Area" data-name="Placement Area" fill="red" stroke="rgba(0,0,0,0)" stroke-width="1" opacity="0">
      <rect width="134" height="40" stroke="none"/>
      <rect x="0.5" y="0.5" width="133" height="39" fill="none"/>
    </g>
    <g transform="matrix(1, 0, 0, 1, -6, -5)" filter="url(#Background)">
      <g id="Background-2" data-name="Background" transform="translate(6 5)" fill="#f5f5f5" stroke="rgba(0,0,0,0)" stroke-width="1" opacity="0.9">
        <rect width="134" height="40" rx="4" stroke="none"/>
        <rect x="0.5" y="0.5" width="133" height="39" rx="3.5" fill="none"/>
      </g>
    </g>
    <g id="Placement_Area-2" data-name="Placement Area" transform="translate(4 4)" fill="red" stroke="rgba(0,0,0,0)" stroke-width="1" opacity="0">
      <rect width="126" height="32" stroke="none"/>
      <rect x="0.5" y="0.5" width="125" height="31" fill="none"/>
    </g>
    <g id="Action_Button" data-name="Action Button">
      <g id="Placement_Area-3" data-name="Placement Area" transform="translate(4 4)" fill="red" stroke="rgba(0,0,0,0)" stroke-width="1" opacity="0">
        <rect width="61" height="32" stroke="none"/>
        <rect x="0.5" y="0.5" width="60" height="31" fill="none"/>
      </g>
      <g id="Background-3" data-name="Background" transform="translate(4 4)" fill="rgba(255,0,0,0)" stroke="rgba(0,0,0,0)" stroke-width="1">
        <rect width="61" height="32" rx="4" stroke="none"/>
        <rect x="0.5" y="0.5" width="60" height="31" rx="3.5" fill="none"/>
      </g>
      <text id="Text" transform="translate(16 24)" fill="#4b4b4b" font-size="14" font-family="AdobeClean-Regular, Adobe Clean"><tspan x="0" y="0">Action</tspan></text>
    </g>
    <g id="Action_Button-2" data-name="Action Button">
      <g id="Placement_Area-4" data-name="Placement Area" transform="translate(69 4)" fill="red" stroke="rgba(0,0,0,0)" stroke-width="1" opacity="0">
        <rect width="61" height="32" stroke="none"/>
        <rect x="0.5" y="0.5" width="60" height="31" fill="none"/>
      </g>
      <g id="Background-4" data-name="Background" transform="translate(69 4)" fill="rgba(255,0,0,0)" stroke="rgba(0,0,0,0)" stroke-width="1">
        <rect width="61" height="32" rx="4" stroke="none"/>
        <rect x="0.5" y="0.5" width="60" height="31" rx="3.5" fill="none"/>
      </g>
      <text id="Text-2" data-name="Text" transform="translate(81 24)" fill="#4b4b4b" font-size="14" font-family="AdobeClean-Regular, Adobe Clean"><tspan x="0" y="0">Action</tspan></text>
    </g>
  </g>
</svg>
