<svg id="Slider" xmlns="http://www.w3.org/2000/svg" width="264" height="48" viewBox="0 0 264 48">
  <g id="Placement_Area" data-name="Placement Area" fill="red" stroke="rgba(0,0,0,0)" stroke-width="1" opacity="0">
    <rect width="264" height="48" stroke="none"/>
    <rect x="0.5" y="0.5" width="263" height="47" fill="none"/>
  </g>
  <text id="Label" transform="translate(0 16)" fill="#6e6e6e" font-size="12" font-family="AdobeClean-Regular, Adobe Clean"><tspan x="0" y="0">Slider label</tspan></text>
  <g id="Placement_Area-2" data-name="Placement Area" transform="translate(0 24)" fill="red" stroke="rgba(0,0,0,0)" stroke-width="1" opacity="0">
    <rect width="200" height="16" stroke="none"/>
    <rect x="0.5" y="0.5" width="199" height="15" fill="none"/>
  </g>
  <g id="Handle" transform="translate(92 24)" fill="rgba(255,0,0,0)" stroke="#6e6e6e" stroke-width="2">
    <circle cx="8" cy="8" r="8" stroke="none"/>
    <circle cx="8" cy="8" r="7" fill="none"/>
  </g>
  <g id="Field" transform="translate(216 16)" fill="#fff" stroke="#cacaca" stroke-width="1">
    <rect width="48" height="32" rx="4" stroke="none"/>
    <rect x="0.5" y="0.5" width="47" height="31" rx="3.5" fill="none"/>
  </g>
  <text id="Text" transform="translate(228 36)" fill="#4b4b4b" font-size="14" font-family="AdobeClean-Regular, Adobe Clean"><tspan x="0" y="0">0</tspan></text>
  <g id="Track" transform="translate(0 31)" fill="#e1e1e1" stroke="rgba(0,0,0,0)" stroke-width="1">
    <path d="M1,0H88a0,0,0,0,1,0,0V2a0,0,0,0,1,0,0H1A1,1,0,0,1,0,1V1A1,1,0,0,1,1,0Z" stroke="none"/>
    <rect x="0.5" y="0.5" width="87" height="1" rx="0.5" fill="none"/>
  </g>
  <g id="Track-2" data-name="Track" transform="translate(112 31)" fill="#e1e1e1" stroke="rgba(0,0,0,0)" stroke-width="1">
    <path d="M0,0H87a1,1,0,0,1,1,1V1a1,1,0,0,1-1,1H0A0,0,0,0,1,0,2V0A0,0,0,0,1,0,0Z" stroke="none"/>
    <rect x="0.5" y="0.5" width="87" height="1" rx="0.5" fill="none"/>
  </g>
</svg>
